<?xml version="1.0" encoding="UTF-8"?>
<svg id="Layer_2" data-name="Layer 2" xmlns="http://www.w3.org/2000/svg" viewBox="0 0 290.25 290.25">
  <defs>
    <style>
      .cls-1 {
        fill: #fff;
      }
    </style>
  </defs>
  <g id="Layer_1-2" data-name="Layer 1">
    <rect width="290.25" height="290.25" rx="46.39" ry="46.39"/>
    <g>
      <path class="cls-1" d="m118.8,72.71h-28.54c-1.34,0-2.43,1.09-2.43,2.43v95.51c0,11.97-5.77,19.12-15.43,19.12-10.68,0-15.24-5.2-15.24-17.37,0-1.34-1.09-2.43-2.43-2.43h-28.54c-1.34,0-2.43,1.09-2.43,2.43,0,7.75,1.25,14.48,3.69,19.97,6.87,16.23,22.83,25.16,44.94,25.16,6.49,0,12.72-1.06,19.07-3.25,18.91-6.83,29.75-22.74,29.75-43.63v-95.51c0-1.34-1.09-2.43-2.43-2.43Z"/>
      <path class="cls-1" d="m266.03,73.73c-.46-.64-1.19-1.02-1.98-1.02h-31.64c-1.07,0-2.02.7-2.32,1.73l-28.92,96.11-28.74-96.11c-.31-1.03-1.25-1.73-2.33-1.73h-31.64c-.79,0-1.52.38-1.98,1.02-.46.64-.57,1.46-.31,2.2l47.95,138.03c.34.98,1.26,1.63,2.29,1.63h29.7c1.03,0,1.95-.65,2.29-1.63l47.95-138.03c.26-.74.14-1.56-.31-2.2Z"/>
    </g>
  </g>
</svg>