<?xml version="1.0" encoding="UTF-8"?>
<svg id="Layer_2" data-name="Layer 2" xmlns="http://www.w3.org/2000/svg" viewBox="0 0 531.06 531.06">
  <defs>
    <style>
      .cls-1 {
        fill: #f90;
      }
    </style>
  </defs>
  <g id="Layer_1-2" data-name="Layer 1">
    <rect class="cls-1" width="531.06" height="531.06"/>
    <g>
      <g>
        <path d="m136.13,398.11c-25.74,0-45.86-7.34-59.8-21.82-13.93-14.46-21.05-35.9-21.17-63.72l1.33-1.5,49.06-5.63,1.67,1.43c.57,14.44,2.69,24.73,6.28,30.57,5.39,8.87,13.37,13.18,24.39,13.18s18.92-3.13,23.4-9.32c4.59-6.33,6.92-19.91,6.92-40.35v-166.51l1.5-1.5h51.87l1.5,1.5v163.16c0,21.39-1.92,38.11-5.7,49.7-5.13,15.26-14.55,27.68-28.01,36.9-13.44,9.22-31.35,13.89-53.24,13.89Z"/>
        <path d="m221.58,134.46v163.16c0,21.34-1.88,37.74-5.63,49.23-5.04,15.01-14.18,27.05-27.43,36.13-13.25,9.08-30.71,13.63-52.4,13.63-25.44,0-45.01-7.12-58.73-21.36s-20.63-35.13-20.75-62.68l49.05-5.63c.59,14.77,2.75,25.2,6.51,31.3,5.63,9.26,14.18,13.89,25.67,13.89s19.81-3.31,24.62-9.93c4.81-6.62,7.21-20.37,7.21-41.23v-166.51h51.87m0-3h-51.87l-3,3v166.51c0,20.12-2.23,33.4-6.64,39.47-4.25,5.85-11.5,8.7-22.19,8.7s-18.02-4.07-23.11-12.45c-3.47-5.63-5.51-15.68-6.07-29.86l-3.34-2.86-49.05,5.63-2.66,2.99c.12,28.21,7.38,50,21.59,64.75,14.24,14.79,34.72,22.28,60.89,22.28,22.2,0,40.4-4.76,54.09-14.15,13.73-9.42,23.35-22.08,28.58-37.65,3.84-11.76,5.78-28.64,5.78-50.19v-163.16l-3-3h0Z"/>
      </g>
      <g>
        <path d="m276.96,393.71l-1.5-1.5V134.46l1.5-1.5h83.52c31.62,0,52.58,1.32,62.28,3.92,15.02,3.93,27.77,12.6,37.9,25.76,10.12,13.16,15.26,30.36,15.26,51.11,0,16-2.96,29.66-8.79,40.62-5.83,10.95-13.35,19.67-22.36,25.93-8.97,6.24-18.23,10.43-27.53,12.45-12.49,2.47-30.75,3.73-54.3,3.73h-32.43v95.73l-1.5,1.5h-52.04Zm80.53-144.01c20.23,0,33.89-1.33,40.6-3.94,6.6-2.57,11.83-6.65,15.57-12.11,3.73-5.46,5.63-11.92,5.63-19.2,0-8.95-2.65-16.42-7.88-22.2-5.26-5.81-12.01-9.5-20.08-10.96-6.12-1.15-18.62-1.73-37.18-1.73h-23.64v70.14h26.98Z"/>
        <path d="m360.48,134.46c31.65,0,52.28,1.29,61.89,3.87,14.77,3.87,27.14,12.28,37.1,25.23,9.96,12.95,14.95,29.69,14.95,50.2,0,15.82-2.87,29.13-8.62,39.91-5.74,10.79-13.04,19.25-21.89,25.41-8.85,6.15-17.85,10.23-26.99,12.22-12.43,2.46-30.42,3.69-53.98,3.69h-33.93v97.23h-52.04V134.46h83.52m-31.47,116.75h28.48c20.51,0,34.23-1.35,41.14-4.04,6.92-2.7,12.34-6.92,16.26-12.66,3.93-5.74,5.89-12.42,5.89-20.04,0-9.38-2.76-17.11-8.26-23.21-5.51-6.09-12.48-9.9-20.92-11.43-6.21-1.17-18.7-1.76-37.45-1.76h-25.14v73.14m31.47-119.75h-83.52l-3,3v257.76l3,3h52.04l3-3v-94.23h30.93c23.65,0,42-1.26,54.56-3.75h.06c9.48-2.08,18.93-6.35,28.06-12.7,9.2-6.4,16.88-15.3,22.83-26.46,5.95-11.17,8.97-25.08,8.97-41.32,0-21.09-5.24-38.6-15.57-52.03-10.33-13.43-23.36-22.28-38.72-26.3-9.95-2.67-30.45-3.97-62.65-3.97h0Zm-28.47,49.6h22.14c18.47,0,30.88.57,36.9,1.71,7.86,1.42,14.15,4.85,19.25,10.49,5.04,5.58,7.49,12.51,7.49,21.2,0,6.97-1.81,13.14-5.37,18.35-3.56,5.21-8.57,9.1-14.88,11.56-6.53,2.55-20.01,3.84-40.05,3.84h-25.48v-67.14h0Z"/>
      </g>
    </g>
  </g>
</svg>